<svg xmlns="http://www.w3.org/2000/svg" viewBox="0 0 339.88 203" fill="rgba(255, 238, 247, 0.8)"><g id="Layer_2" data-name="Layer 2"><g id="Layer_1-2" data-name="Layer 1"><path d="M219.8,200.33c-2.6-1.47-4.8-2.93-4.8-3.36s2.3-4.91,5-10.08c5.3-9.91,5.6-10.77,4-9.91-.6.34-1-.95-1-3.19,0-2.58,1.5-6.37,4.9-12.75,2.8-5,4.6-9.13,4.1-9.3s-5.2.68-10.6,1.89c-53.4,11.63-106.1,13.61-162.9,6.12-19.5-2.59-48.6-8-50.1-9.39C7.5,149.67-.1,76.86,0,70c0-.6,1-1.12,2.3-1.12,2,0,2.3-.34,1.9-2.5C4,65,4.7,62.13,5.8,60c3.3-6.38,5.6-6.64,30.9-3.28C86.5,63.16,109,64.8,146,64.8c30.3,0,45.4-1,62.2-4.31,4-.77,8.3-1.38,9.5-1.46,1.8-.09,1.9-.35,1-1.81-1.7-2.76-17.3-15.6-32-26.28l-13.6-9.82,2-3.1c1.1-1.64,2.6-3.71,3.3-4.57,1.5-1.64,1.2-1.72,12.1,2.33,3.3,1.2,5.1,1.72,4,1.12-3.9-2.07-10.2-8.19-10.9-10.52a4.74,4.74,0,0,1,1-4.48c2.9-3.87,7.6-2.67,44.9,11.55,35.4,13.53,59.2,22.14,82.6,30,23.9,8,26.9,10.08,26.9,18.18,0,2.67-.4,5.52-1,6.38-.7,1.12-.6,1.64.5,2.07,2.3.69,1.9,2.93-2.5,14.47-8.8,23.09-21.9,41.44-45.9,64-7.6,7.15-24.9,21.54-54.1,45.14L224.5,203Z"/></g></g></svg>