<svg xmlns="http://www.w3.org/2000/svg" fill="rgba(255, 238, 247, 0.8)" viewBox="0 0 306.06 179.47"><g id="Layer_2" data-name="Layer 2"><g id="Layer_2-2" data-name="Layer 2"><path d="M0,0C79.59,23.46,193.19,23.7,297.8.74c-1,21,7.35,49.48,7.35,49.48s-18.43,9.06-32.56,11.41a91.38,91.38,0,0,1,2.59,9.13C177.25,85.55,119.05,96.55,7.05,64.39.11,41.05,0,0,0,0Z"/><path d="M.91,94.24C80.5,117.7,194.09,118,298.7,95c-1,21,7.36,49.48,7.36,49.48s-18.44,9.06-32.56,11.41a91.44,91.44,0,0,1,2.58,9.13C178.15,179.8,120,190.79,8,158.64,1,135.29.91,94.24.91,94.24Z"/></g></g></svg>